<?xml version="1.0" encoding="utf-8"?>
<!-- Generator: Adobe Illustrator 15.0.0, SVG Export Plug-In . SVG Version: 6.00 Build 0)  -->
<!DOCTYPE svg PUBLIC "-//W3C//DTD SVG 1.1//EN" "http://www.w3.org/Graphics/SVG/1.1/DTD/svg11.dtd">
<svg version="1.1" id="Layer_1" xmlns="http://www.w3.org/2000/svg" xmlns:xlink="http://www.w3.org/1999/xlink" x="0px" y="0px"
	 width="16px" height="16px" viewBox="0 0 16 16" enable-background="new 0 0 16 16" xml:space="preserve">
<path fill="#B09E71" d="M11.659,9.77c0.607-0.959,0.966-2.097,0.966-3.32c0-3.416-2.767-6.187-6.179-6.187
	c-3.417,0-6.183,2.771-6.183,6.187c0,3.417,2.767,6.186,6.179,6.186c1.239,0,2.393-0.365,3.36-0.99l0.279-0.195l4.413,4.412
	l1.369-1.394l-4.407-4.412L11.659,9.77z M9.908,2.993c0.922,0.922,1.429,2.148,1.429,3.453S10.83,8.977,9.908,9.898
	c-0.923,0.923-2.149,1.43-3.454,1.43c-1.305,0-2.532-0.507-3.454-1.43c-0.922-0.922-1.43-2.148-1.43-3.453s0.508-2.53,1.43-3.453
	c0.922-0.922,2.149-1.43,3.454-1.43C7.759,1.563,8.985,2.071,9.908,2.993z"/>
</svg>
